<?xml version="1.0" standalone="no"?>
<!DOCTYPE svg PUBLIC "-//W3C//DTD SVG 20010904//EN"
 "http://www.w3.org/TR/2001/REC-SVG-20010904/DTD/svg10.dtd">
<svg version="1.0" xmlns="http://www.w3.org/2000/svg"
 width="320.000000pt" height="320.000000pt" viewBox="0 0 320.000000 320.000000"
 preserveAspectRatio="xMidYMid meet">

<g transform="translate(0.000000,320.000000) scale(0.100000,-0.100000)"
fill="#000000" stroke="none">
<path d="M1625 2853 c-32 -17 -435 -263 -520 -318 -27 -17 -162 -101 -300
-185 -137 -84 -260 -163 -272 -177 -24 -26 -31 -80 -14 -112 6 -10 64 -53 130
-97 66 -43 121 -82 121 -85 0 -4 -52 -39 -115 -79 -128 -79 -145 -101 -145
-179 0 -66 24 -94 161 -183 60 -39 109 -74 109 -78 0 -4 -21 -21 -47 -37 -27
-17 -84 -52 -127 -79 -94 -58 -115 -92 -92 -148 15 -36 28 -45 690 -490 170
-115 329 -219 354 -232 54 -29 118 -31 170 -6 20 10 192 131 382 269 620 450
605 438 597 524 -2 26 -13 59 -24 75 -12 16 -73 61 -137 99 -63 39 -114 74
-113 79 2 4 58 43 126 86 147 92 171 125 140 192 -11 25 -20 32 -161 122 -49
31 -88 60 -88 65 0 5 45 37 100 71 139 86 170 127 156 208 -8 51 -31 79 -122
143 -605 426 -764 536 -794 551 -43 22 -124 23 -165 1z m306 -220 c107 -75
223 -157 259 -182 36 -25 139 -97 228 -160 90 -63 171 -125 180 -139 16 -24
15 -26 -20 -56 -20 -17 -101 -71 -180 -119 -78 -49 -219 -135 -311 -193 -92
-57 -171 -104 -175 -104 -4 0 -43 61 -88 134 -75 124 -80 135 -68 157 33 60
10 118 -59 147 -43 19 -155 15 -203 -7 -138 -63 -71 -200 97 -201 l56 0 91
-145 90 -144 -102 -66 c-122 -77 -147 -84 -199 -53 -45 27 -681 453 -815 546
l-93 64 68 42 c37 24 127 79 198 123 409 253 489 302 580 358 200 124 220 135
245 135 18 0 92 -46 221 -137z m-747 -1027 c167 -113 322 -210 344 -217 68
-20 119 -5 242 72 62 39 113 69 114 67 1 -2 18 -28 37 -58 85 -129 110 -173
102 -180 -33 -31 -462 -290 -480 -290 -31 0 -71 21 -163 85 -41 28 -228 155
-415 280 -187 126 -343 233 -348 239 -20 30 1 52 127 128 71 43 130 78 133 78
2 0 140 -92 307 -204z m1286 130 c63 -41 115 -79 115 -86 0 -7 -27 -30 -60
-50 -33 -21 -138 -86 -233 -145 -95 -59 -174 -106 -176 -104 -29 36 -145 234
-139 239 24 23 350 220 363 220 8 -1 67 -34 130 -74z m-18 -461 c133 -81 159
-104 151 -135 -5 -18 -828 -628 -907 -672 -47 -26 -65 -22 -151 35 -378 249
-924 621 -920 628 6 9 251 159 260 159 3 0 135 -86 292 -192 285 -192 286
-192 348 -196 74 -5 53 -15 317 149 113 71 209 129 212 129 15 0 4 -64 -15
-89 -48 -66 -2 -135 91 -135 115 0 166 120 70 165 -28 14 -36 25 -47 65 -11
45 -11 49 10 63 41 30 152 100 159 100 4 1 62 -33 130 -74z"/>
<path d="M1670 2549 c-7 -11 -9 -31 -6 -44 8 -31 514 -385 551 -385 31 0 53
39 39 69 -5 11 -70 62 -144 114 -74 51 -191 132 -259 180 -69 48 -135 87 -147
87 -13 0 -28 -9 -34 -21z"/>
</g>
</svg>
